# xmcd
#
# Track frame offsets: 
#        150
#        15912
#        32715
#        47912
#        64777
#        80192
#        99035
#        108842
#        123680
#        154462
#        170185
#        187202
#        205805
#        221805
#        235795
#        250645
#
# Disc length: 3378 seconds
#
# Revision: 0
# Processed by: cddbd v1.5.2PL0 Copyright (c) Steve Scherf et al.
# Submitted via: ExactAudioCopyFreeDBPlugin 1.0
#
DISCID=e10d3010
DTITLE=Meyer and Java - Tracks of the Past
DYEAR=1995
DGENRE=Blues
TTITLE0=Palace Of The King
TTITLE1=Rock and Roll Hoochie Coo
TTITLE2=Come Together
TTITLE3=Last Time
TTITLE4=Guess I'll Go Anyway
TTITLE5=Lies
TTITLE6=Shake
TTITLE7=Divin Rock
TTITLE8=Still In Love With You
TTITLE9=The Mover
TTITLE10=Funk 49
TTITLE11=Give Me That Wine
TTITLE12=Hold On, I'm Coming
TTITLE13=Don't Wanna Live A Lie
TTITLE14=Same Old Blues
TTITLE15=Blue Taps
EXTD=
EXTT0=
EXTT1=
EXTT2=
EXTT3=
EXTT4=
EXTT5=
EXTT6=
EXTT7=
EXTT8=
EXTT9=
EXTT10=
EXTT11=
EXTT12=
EXTT13=
EXTT14=
EXTT15=
PLAYORDER=
